<?xml version="1.0" encoding="UTF-8"?>
<svg id="Capa_2" data-name="Capa 2" xmlns="http://www.w3.org/2000/svg" viewBox="0 0 305.43 95.61">
  <defs>
    <style>
      .cls-1 {
        fill: #fff;
      }

      .cls-2 {
        fill: #df3f36;
      }
    </style>
  </defs>
  <g id="Capa_1-2" data-name="Capa 1">
    <g>
      <g>
        <path class="cls-1" d="M125.24,15.72h14.78c14.51,0,22.63,9.4,22.63,24.36,0,3.19-.36,6.75-1.19,10.49-4.11,19.62-14.14,29.01-29.29,29.01h-20.53l13.59-63.87ZM136.47,27.22l-8.76,41.06h4.38c7.21,0,13.59-5.93,16.06-19.34.64-3.47.91-6.48.91-9.12,0-8.39-3.28-12.59-10.49-12.59h-2.1Z"/>
        <path class="cls-1" d="M162.28,69c0-1.09.09-2.28.37-3.38l7.76-36.13h12.96l-7.57,35.22c-.09.55-.18,1.09-.18,1.55,0,2.74,1.64,4.47,4.84,4.47,2.01,0,3.92-1.09,5.47-2.65l8.12-38.59h12.96l-10.67,50.09h-12.86l.91-4.2c-2.83,3.1-6.57,5.2-10.86,5.2-7.21,0-11.22-5.29-11.22-11.59Z"/>
        <path class="cls-1" d="M216.29,15.72h12.96l-13.59,63.87h-12.96l13.59-63.87Z"/>
        <path class="cls-1" d="M224.32,62.07c0-2.92.36-6.02,1.09-9.49,3.38-15.97,11.86-24.27,23.08-24.27s17.7,6.75,17.7,18.61c0,2.92-.37,6.02-1.09,9.49-3.38,15.97-11.77,24.27-22.99,24.27s-17.79-6.75-17.79-18.61ZM252.51,55.14c.73-3.47,1.09-6.39,1.09-8.76,0-5.47-1.92-8.12-5.57-8.12-4.29,0-7.66,4.56-9.94,15.6-.73,3.56-1.19,6.57-1.19,8.94,0,5.38,1.92,7.94,5.57,7.94,4.29,0,7.66-4.56,10.04-15.6Z"/>
        <path class="cls-1" d="M266.47,61.8v-1.73h11.5c-.09.64-.09,1.28-.09,1.92,0,5.57,2.55,9.31,6.3,9.31,3.28,0,5.93-2.01,5.93-5.11,0-3.65-4.47-5.75-9.22-8.58-5.02-3.01-10.22-6.66-10.22-13.5,0-9.76,7.39-15.88,17.34-15.88,11.04,0,17.43,6.57,17.43,17.61v1.55h-11.22c0-5.2-1.64-9.76-6.02-9.76-3.1,0-5.47,2.1-5.47,4.93s3.56,4.84,7.57,7.03c5.47,3.1,11.95,6.75,11.95,14.6,0,10.22-8.03,16.61-17.97,16.61-11.5,0-17.79-7.3-17.79-18.98Z"/>
      </g>
      <g>
        <path class="cls-2" d="M92.97,36.53c-2.12-8.05-5.29-14.93-9.17-19.88-.68-.86-1.43-1.72-2.23-2.55h-.01s-.07-.08-.07-.08c-.82-.79-1.67-1.53-2.53-2.2-4.96-3.87-11.84-7.03-19.9-9.13C51.68.75,43.59-.19,36.28.03c-9.05.27-17.96,2.08-26.48,5.39l-.72.28-.02.03c-2.02.9-3.85,2.25-5.31,3.93C.56,13.33-.7,18.24.38,22.8c.67,3.04,1.92,5.49,3.72,7.3,2.32,2.32,5.5,3.47,9.21,3.34,3.97-.14,12.11-2.87,21.52-6.04,6.03-2.03,11.73-3.95,14.9-4.63,10.16-2.16,15.02.82,18.75,4.37,3.56,3.72,6.55,8.58,4.41,18.73-.68,3.17-2.58,8.87-4.6,14.91-3.15,9.42-5.87,17.56-6,21.54-.22,6.69,3.66,11.4,10.62,12.9,4.59,1.08,9.52-.18,13.18-3.38,1.78-1.55,3.19-3.52,4.08-5.68l.15-.38c3.29-8.53,5.09-17.44,5.35-26.49.21-7.31-.75-15.4-2.69-22.77Z"/>
        <path class="cls-2" d="M59.61,36.11c-6.65-6.65-20.75-3.33-27.41,3.33-6.66,6.66-4.3,15.08,2.35,21.73,6.65,6.65,15.07,9.01,21.73,2.35,6.66-6.66,9.98-20.76,3.33-27.41Z"/>
      </g>
    </g>
  </g>
</svg>