<?xml version="1.0" encoding="UTF-8"?>
<svg id="Capa_2" data-name="Capa 2" xmlns="http://www.w3.org/2000/svg" viewBox="0 0 95.68 95.61">
  <defs>
    <style>
      .cls-1 {
        fill: #fff;
      }
    </style>
  </defs>
  <g id="Capa_1-2" data-name="Capa 1">
    <g>
      <path class="cls-1" d="M92.97,36.53c-2.12-8.05-5.29-14.93-9.17-19.88-.68-.86-1.43-1.72-2.23-2.55h-.01s-.07-.08-.07-.08c-.82-.79-1.67-1.53-2.53-2.2-4.96-3.87-11.84-7.03-19.9-9.13C51.68.75,43.59-.19,36.28.03c-9.05.27-17.96,2.08-26.48,5.39l-.72.28-.02.03c-2.02.9-3.85,2.25-5.31,3.93C.56,13.33-.7,18.24.38,22.8c.67,3.04,1.92,5.49,3.72,7.3,2.32,2.32,5.5,3.47,9.21,3.34,3.97-.14,12.11-2.87,21.52-6.04,6.03-2.03,11.73-3.95,14.9-4.63,10.16-2.16,15.02.82,18.75,4.37,3.56,3.72,6.55,8.58,4.41,18.73-.68,3.17-2.58,8.87-4.6,14.91-3.15,9.42-5.87,17.56-6,21.54-.22,6.69,3.66,11.4,10.62,12.9,4.59,1.08,9.52-.18,13.18-3.38,1.78-1.55,3.19-3.52,4.08-5.68l.15-.38c3.29-8.53,5.09-17.44,5.35-26.49.21-7.31-.75-15.4-2.69-22.77Z"/>
      <path class="cls-1" d="M59.61,36.11c-6.65-6.65-20.75-3.33-27.41,3.33-6.66,6.66-4.3,15.08,2.35,21.73,6.65,6.65,15.07,9.01,21.73,2.35,6.66-6.66,9.98-20.76,3.33-27.41Z"/>
    </g>
  </g>
</svg>